<svg id="visual" viewBox="0 0 960 540" width="960" height="540" xmlns="http://www.w3.org/2000/svg" xmlns:xlink="http://www.w3.org/1999/xlink" version="1.1"><rect x="0" y="0" width="960" height="540" fill="#06283d"></rect><path d="M463 540L473.2 535C483.3 530 503.7 520 502.7 510C501.7 500 479.3 490 471.8 480C464.3 470 471.7 460 472.3 450C473 440 467 430 467.7 420C468.3 410 475.7 400 486.5 390C497.3 380 511.7 370 518 360C524.3 350 522.7 340 512.3 330C502 320 483 310 480.2 300C477.3 290 490.7 280 498 270C505.3 260 506.7 250 506.7 240C506.7 230 505.3 220 500.3 210C495.3 200 486.7 190 484.3 180C482 170 486 160 488.3 150C490.7 140 491.3 130 491.5 120C491.7 110 491.3 100 489.7 90C488 80 485 70 490.3 60C495.7 50 509.3 40 516.7 30C524 20 525 10 525.5 5L526 0L960 0L960 5C960 10 960 20 960 30C960 40 960 50 960 60C960 70 960 80 960 90C960 100 960 110 960 120C960 130 960 140 960 150C960 160 960 170 960 180C960 190 960 200 960 210C960 220 960 230 960 240C960 250 960 260 960 270C960 280 960 290 960 300C960 310 960 320 960 330C960 340 960 350 960 360C960 370 960 380 960 390C960 400 960 410 960 420C960 430 960 440 960 450C960 460 960 470 960 480C960 490 960 500 960 510C960 520 960 530 960 535L960 540Z" fill="#DFF6FF" stroke-linecap="round" stroke-linejoin="miter"></path></svg>